<svg width="340" height="340" viewBox="0 0 340 340" fill="none" xmlns="http://www.w3.org/2000/svg">
<path d="M340 170C340 263.888 263.888 340 170 340C76.1116 340 0 263.888 0 170C0 76.1116 76.1116 0 170 0C263.888 0 340 76.1116 340 170Z" fill="#FFFAEE" fill-opacity="0.27"/>
<path d="M170 275C227.99 275 275 227.99 275 170C275 112.01 227.99 65 170 65C112.01 65 65 112.01 65 170C65 227.99 112.01 275 170 275Z" fill="#E6E6E6"/>
<path d="M159.672 109.754C166.327 109.754 171.721 104.36 171.721 97.705C171.721 91.0504 166.327 85.6558 159.672 85.6558C153.017 85.6558 147.623 91.0504 147.623 97.705C147.623 104.36 153.017 109.754 159.672 109.754Z" fill="#CBCBCB"/>
<path d="M180.328 230.246C186.983 230.246 192.377 224.851 192.377 218.197C192.377 211.542 186.983 206.148 180.328 206.148C173.673 206.148 168.279 211.542 168.279 218.197C168.279 224.851 173.673 230.246 180.328 230.246Z" fill="#CBCBCB"/>
<path d="M226.803 159.672C231.556 159.672 235.41 155.819 235.41 151.066C235.41 146.312 231.556 142.459 226.803 142.459C222.05 142.459 218.197 146.312 218.197 151.066C218.197 155.819 222.05 159.672 226.803 159.672Z" fill="#CBCBCB"/>
<path d="M128.688 206.148C143.899 206.148 156.229 193.817 156.229 178.607C156.229 163.396 143.899 151.066 128.688 151.066C113.478 151.066 101.148 163.396 101.148 178.607C101.148 193.817 113.478 206.148 128.688 206.148Z" fill="#CBCBCB"/>
</svg>
