<svg width="340" height="340" viewBox="0 0 340 340" fill="none" xmlns="http://www.w3.org/2000/svg">
<path d="M340 170C340 263.888 263.888 340 170 340C76.1116 340 0 263.888 0 170C0 76.1116 76.1116 0 170 0C263.888 0 340 76.1116 340 170Z" fill="#FFFAEE" fill-opacity="0.27"/>
<path d="M25.3529 192.574C24.034 200.558 22.3679 202.458 20.7899 201.913C19.2119 201.369 18.3195 198.585 19.6384 190.601C20.9574 182.617 25.5661 173 25.5661 173C25.5661 173 26.6719 184.589 25.3529 192.574Z" fill="white"/>
<path d="M202.353 264.574C201.034 272.558 199.368 274.458 197.79 273.913C196.212 273.369 195.319 270.585 196.638 262.601C197.957 254.617 202.566 245 202.566 245C202.566 245 203.672 256.589 202.353 264.574Z" fill="white"/>
<path d="M241.353 291.574C240.034 299.558 238.368 301.458 236.79 300.913C235.212 300.369 234.319 297.585 235.638 289.601C236.957 281.617 241.566 272 241.566 272C241.566 272 242.672 283.589 241.353 291.574Z" fill="white"/>
<path d="M48.6302 107.149C47.8766 112.105 46.9245 113.284 46.0228 112.946C45.1211 112.608 44.6111 110.88 45.3648 105.925C46.1185 100.969 48.7521 95 48.7521 95C48.7521 95 49.3839 102.193 48.6302 107.149Z" fill="white"/>
<path d="M166.63 308.474C165.877 313.155 164.924 314.269 164.023 313.949C163.121 313.63 162.611 311.998 163.365 307.318C164.118 302.637 166.752 297 166.752 297C166.752 297 167.384 303.794 166.63 308.474Z" fill="white"/>
<path d="M181.353 68.5736C180.034 76.5578 178.368 78.4582 176.79 77.9135C175.212 77.3687 174.32 74.5851 175.638 66.6009C176.957 58.6167 181.566 49 181.566 49C181.566 49 182.672 60.5893 181.353 68.5736Z" fill="white"/>
<path d="M186.63 12.1491C185.877 17.1049 184.924 18.2844 184.023 17.9463C183.121 17.6082 182.611 15.8804 183.365 10.9246C184.118 5.96891 186.752 0 186.752 0C186.752 0 187.384 7.19345 186.63 12.1491Z" fill="white"/>
<path d="M162.63 35.1492C161.877 40.1049 160.924 41.2844 160.023 40.9463C159.121 40.6082 158.611 38.8804 159.365 33.9247C160.118 28.9689 162.752 23 162.752 23C162.752 23 163.384 30.1935 162.63 35.1492Z" fill="white"/>
<path d="M114.353 317.574C113.034 325.558 111.368 327.458 109.79 326.913C108.212 326.369 107.319 323.585 108.638 315.601C109.957 307.617 114.566 298 114.566 298C114.566 298 115.672 309.589 114.353 317.574Z" fill="white"/>
<path d="M161.353 275.574C160.034 283.558 158.368 285.458 156.79 284.913C155.212 284.369 154.319 281.585 155.638 273.601C156.957 265.617 161.566 256 161.566 256C161.566 256 162.672 267.589 161.353 275.574Z" fill="white"/>
<path d="M119.63 260.474C118.877 265.155 117.924 266.269 117.023 265.949C116.121 265.63 115.611 263.998 116.365 259.318C117.118 254.637 119.752 249 119.752 249C119.752 249 120.384 255.794 119.63 260.474Z" fill="white"/>
<path d="M95.6302 284.149C94.8766 289.105 93.9245 290.284 93.0228 289.946C92.1211 289.608 91.6111 287.88 92.3648 282.925C93.1185 277.969 95.7521 272 95.7521 272C95.7521 272 96.3839 279.193 95.6302 284.149Z" fill="white"/>
<path d="M89.3529 80.5736C88.034 88.5578 86.3679 90.4582 84.7899 89.9135C83.2119 89.3687 82.3195 86.5851 83.6384 78.6009C84.9574 70.6167 89.5661 61 89.5661 61C89.5661 61 90.6719 72.5893 89.3529 80.5736Z" fill="white"/>
<path d="M86.2605 218.574C84.7531 226.558 82.849 228.458 81.0456 227.913C79.2421 227.369 78.2223 224.585 79.7296 216.601C81.237 208.617 86.5042 199 86.5042 199C86.5042 199 87.7678 210.589 86.2605 218.574Z" fill="white"/>
<path d="M125.26 130.574C123.753 138.558 121.849 140.458 120.046 139.913C118.242 139.369 117.222 136.585 118.73 128.601C120.237 120.617 125.504 111 125.504 111C125.504 111 126.768 122.589 125.26 130.574Z" fill="white"/>
<path d="M91.6302 162.149C90.8766 167.105 89.9245 168.284 89.0228 167.946C88.1211 167.608 87.6111 165.88 88.3648 160.925C89.1185 155.969 91.7521 150 91.7521 150C91.7521 150 92.3839 157.193 91.6302 162.149Z" fill="white"/>
<path d="M66.6302 186.149C65.8766 191.105 64.9245 192.284 64.0228 191.946C63.1211 191.608 62.6111 189.88 63.3648 184.925C64.1185 179.969 66.7521 174 66.7521 174C66.7521 174 67.3839 181.193 66.6302 186.149Z" fill="white"/>
<path d="M154.353 86.5736C153.034 94.5578 151.368 96.4582 149.79 95.9135C148.212 95.3687 147.32 92.5851 148.638 84.6009C149.957 76.6167 154.566 67 154.566 67C154.566 67 155.672 78.5893 154.353 86.5736Z" fill="white"/>
<path d="M150.445 224.574C149.315 232.558 147.887 234.458 146.534 233.913C145.182 233.369 144.417 230.585 145.547 222.601C146.678 214.617 150.628 205 150.628 205C150.628 205 151.576 216.589 150.445 224.574Z" fill="white"/>
<path d="M156.63 168.149C155.877 173.105 154.924 174.284 154.023 173.946C153.121 173.608 152.611 171.88 153.365 166.925C154.118 161.969 156.752 156 156.752 156C156.752 156 157.384 163.193 156.63 168.149Z" fill="white"/>
<path d="M40.6302 248.149C39.8766 253.105 38.9245 254.284 38.0228 253.946C37.1211 253.608 36.6111 251.88 37.3648 246.925C38.1185 241.969 40.7521 236 40.7521 236C40.7521 236 41.3839 243.193 40.6302 248.149Z" fill="white"/>
<path d="M214.353 112.574C213.034 120.558 211.368 122.458 209.79 121.913C208.212 121.369 207.32 118.585 208.638 110.601C209.957 102.617 214.566 93 214.566 93C214.566 93 215.672 104.589 214.353 112.574Z" fill="white"/>
<path d="M177.353 126.574C176.034 134.558 174.368 136.458 172.79 135.913C171.212 135.369 170.32 132.585 171.638 124.601C172.957 116.617 177.566 107 177.566 107C177.566 107 178.672 118.589 177.353 126.574Z" fill="white"/>
<path d="M195.63 80.1492C194.877 85.1049 193.924 86.2844 193.023 85.9463C192.121 85.6082 191.611 83.8804 192.365 78.9247C193.118 73.9689 195.752 68 195.752 68C195.752 68 196.384 75.1935 195.63 80.1492Z" fill="white"/>
<path d="M243.445 75.5736C242.315 83.5578 240.887 85.4582 239.534 84.9135C238.182 84.3687 237.417 81.5851 238.547 73.6009C239.678 65.6167 243.628 56 243.628 56C243.628 56 244.576 67.5893 243.445 75.5736Z" fill="white"/>
<path d="M240.353 213.574C239.034 221.558 237.368 223.458 235.79 222.913C234.212 222.369 233.32 219.585 234.638 211.601C235.957 203.617 240.566 194 240.566 194C240.566 194 241.672 205.589 240.353 213.574Z" fill="white"/>
<path d="M308.353 218.574C307.034 226.558 305.368 228.458 303.79 227.913C302.212 227.369 301.32 224.585 302.638 216.601C303.957 208.617 308.566 199 308.566 199C308.566 199 309.672 210.589 308.353 218.574Z" fill="white"/>
<path d="M194.353 182.574C193.034 190.558 191.368 192.458 189.79 191.913C188.212 191.369 187.32 188.585 188.638 180.601C189.957 172.617 194.566 163 194.566 163C194.566 163 195.672 174.589 194.353 182.574Z" fill="white"/>
<path d="M245.63 157.149C244.877 162.105 243.924 163.284 243.023 162.946C242.121 162.608 241.611 160.88 242.365 155.925C243.118 150.969 245.752 145 245.752 145C245.752 145 246.384 152.193 245.63 157.149Z" fill="white"/>
<path d="M304.353 101.899C303.034 109.608 301.368 111.442 299.79 110.916C298.212 110.39 297.32 107.703 298.638 99.9939C299.957 92.285 304.566 83 304.566 83C304.566 83 305.672 94.1897 304.353 101.899Z" fill="white"/>
<path d="M285.63 69.1492C284.877 74.1049 283.924 75.2844 283.023 74.9463C282.121 74.6082 281.611 72.8804 282.365 67.9247C283.118 62.9689 285.752 57 285.752 57C285.752 57 286.384 64.1935 285.63 69.1492Z" fill="white"/>
<path d="M279.445 166.574C278.315 174.558 276.887 176.458 275.534 175.913C274.182 175.369 273.417 172.585 274.547 164.601C275.678 156.617 279.628 147 279.628 147C279.628 147 280.576 158.589 279.445 166.574Z" fill="white"/>
<path d="M265.445 114.574C264.315 122.558 262.887 124.458 261.534 123.913C260.182 123.369 259.417 120.585 260.547 112.601C261.678 104.617 265.628 95 265.628 95C265.628 95 266.576 106.589 265.445 114.574Z" fill="white"/>
<path d="M276.353 304.574C275.034 312.558 273.368 314.458 271.79 313.913C270.212 313.369 269.32 310.585 270.638 302.601C271.957 294.617 276.566 285 276.566 285C276.566 285 277.672 296.589 276.353 304.574Z" fill="white"/>
<path d="M281.63 248.149C280.877 253.105 279.924 254.284 279.023 253.946C278.121 253.608 277.611 251.88 278.365 246.925C279.118 241.969 281.752 236 281.752 236C281.752 236 282.384 243.193 281.63 248.149Z" fill="white"/>
<path d="M66.6302 275.149C65.8766 280.105 64.9245 281.284 64.0228 280.946C63.1211 280.608 62.6111 278.88 63.3648 273.925C64.1185 268.969 66.7521 263 66.7521 263C66.7521 263 67.3839 270.193 66.6302 275.149Z" fill="white"/>
<path d="M339.353 192.574C338.034 200.558 336.368 202.458 334.79 201.913C333.212 201.369 332.32 198.585 333.638 190.601C334.957 182.617 339.566 173 339.566 173C339.566 173 340.672 184.589 339.353 192.574Z" fill="white"/>
<path d="M319.01 121.93C318.242 125.628 317.273 126.508 316.354 126.256C315.436 126.003 314.917 124.714 315.684 121.016C316.452 117.318 319.134 112.863 319.134 112.863C319.134 112.863 319.777 118.231 319.01 121.93Z" fill="white"/>
</svg>
